<?xml version="1.0" standalone="no"?>
<!DOCTYPE svg PUBLIC "-//W3C//DTD SVG 20010904//EN"
 "http://www.w3.org/TR/2001/REC-SVG-20010904/DTD/svg10.dtd">
<svg version="1.0" xmlns="http://www.w3.org/2000/svg"
 width="3456.000000pt" height="2234.000000pt" viewBox="0 0 3456.000000 2234.000000"
 preserveAspectRatio="xMidYMid meet">

<g transform="translate(0.000000,2234.000000) scale(0.100000,-0.100000)"
fill="#000000" stroke="none">
<path d="M0 20760 l0 -1580 7035 0 7035 0 0 -2033 c0 -2284 -6 -2101 75 -2182
82 -82 -215 -75 3135 -75 3350 0 3053 -7 3135 75 81 81 75 -102 75 2182 l0
2033 7035 0 7035 0 0 1580 0 1580 -17280 0 -17280 0 0 -1580z m628 560 c42
-26 72 -76 72 -120 0 -71 -69 -140 -140 -140 -71 0 -140 69 -140 140 0 71 69
140 140 140 19 0 50 -9 68 -20z m292 -110 c0 -53 -4 -90 -10 -90 -6 0 -10 37
-10 90 0 53 4 90 10 90 6 0 10 -37 10 -90z m470 0 c0 -53 -4 -90 -10 -90 -6 0
-10 37 -10 90 0 53 4 90 10 90 6 0 10 -37 10 -90z m60 62 c0 -26 2 -28 32 -24
41 6 58 -17 58 -80 0 -36 -4 -48 -15 -48 -11 0 -15 12 -15 50 0 38 -4 52 -16
57 -24 9 -44 -23 -44 -69 0 -21 -4 -38 -10 -38 -6 0 -10 37 -10 90 0 53 4 90
10 90 6 0 10 -13 10 -28z m639 11 c45 -37 35 -144 -16 -164 -26 -10 -69 5 -77
27 -6 16 20 19 29 4 10 -17 44 -11 55 9 14 27 14 28 -20 23 -54 -8 -90 49 -57
90 24 31 57 35 86 11z m148 2 c41 -29 40 -134 -2 -161 -52 -34 -104 31 -89
111 6 33 35 65 59 65 6 0 20 -7 32 -15z m158 -10 c67 -66 -5 -204 -76 -146
-30 24 -18 39 16 21 20 -11 27 -11 40 0 26 22 18 36 -19 32 -26 -3 -37 1 -50
19 -9 13 -16 29 -16 37 0 18 46 62 65 62 9 0 27 -11 40 -25z m155 5 c15 -15
20 -33 20 -74 0 -47 -4 -57 -26 -75 -34 -27 -40 -26 -69 4 -20 19 -25 34 -25
73 0 79 54 118 100 72z m2742 -22 c3 -43 3 -43 46 -46 53 -4 55 -22 2 -22
l-40 0 0 -45 c0 -33 -4 -45 -15 -45 -11 0 -15 11 -15 40 l0 40 -45 0 c-33 0
-45 4 -45 14 0 10 14 16 43 18 42 3 42 3 45 46 2 23 7 42 12 42 5 0 10 -19 12
-42z m-3422 7 c0 -8 7 -15 15 -15 8 0 15 -4 15 -10 0 -5 -7 -10 -15 -10 -11 0
-15 -11 -15 -40 0 -27 5 -43 15 -46 25 -10 17 -26 -12 -22 -26 3 -28 7 -31 53
-2 27 -9 53 -15 58 -9 7 -9 10 1 14 6 2 12 11 12 19 0 8 7 14 15 14 8 0 15 -7
15 -15z m2662 -12 l28 -27 30 29 c23 22 33 26 42 17 9 -9 5 -19 -17 -42 l-29
-30 29 -30 c22 -23 26 -33 17 -42 -9 -9 -19 -5 -42 17 l-30 29 -30 -29 c-23
-22 -33 -26 -42 -17 -9 9 -5 19 17 42 l29 30 -28 29 c-16 16 -25 34 -22 40 10
16 17 14 48 -16z m-3480 -20 c22 -20 23 -70 1 -95 -36 -40 -103 -10 -103 45 0
58 60 88 102 50z m148 -3 c12 -23 1 -27 -31 -9 -40 21 -69 -42 -33 -72 12 -10
20 -10 35 -1 29 19 41 15 29 -8 -7 -14 -21 -20 -44 -20 -41 0 -60 21 -60 65 0
44 19 65 60 65 23 0 37 -6 44 -20z m130 -6 c6 -14 10 -43 10 -64 l0 -38 -52 1
c-48 2 -53 4 -56 26 -5 29 20 51 57 51 23 0 24 1 9 16 -13 13 -19 14 -36 3
-25 -16 -40 -5 -22 16 7 8 28 15 46 15 28 0 36 -5 44 -26z m332 9 c22 -20 23
-70 1 -95 -36 -40 -103 -10 -103 45 0 58 60 88 102 50z m135 2 c8 -23 -2 -28
-26 -13 -15 9 -23 10 -32 1 -9 -9 -3 -15 25 -27 41 -17 54 -39 36 -61 -16 -20
-74 -19 -90 0 -18 22 -4 31 25 15 19 -10 28 -11 37 -2 8 8 1 15 -26 26 -28 11
-36 21 -36 40 0 27 11 34 53 35 16 1 30 -5 34 -14z m32335 -12 l28 -27 30 29
c24 23 33 26 42 17 10 -10 3 -22 -30 -55 l-42 -42 -41 42 c-23 22 -38 46 -35
52 10 16 17 14 48 -16z m-32174 5 c-3 -7 -11 -13 -18 -13 -7 0 -15 6 -17 13
-3 7 4 12 17 12 13 0 20 -5 18 -12z m2 -93 c0 -8 -6 -15 -14 -15 -17 0 -28 14
-19 24 12 12 33 6 33 -9z m29793 -739 c16 -3 44 -6 61 -6 l31 -1 -45 -38 -44
-39 12 -52 c7 -29 11 -54 9 -56 -1 -1 -23 10 -47 25 l-45 29 -54 -31 c-38 -21
-53 -26 -49 -15 4 8 9 36 13 60 7 44 6 46 -35 80 l-43 35 60 7 59 7 23 52 22
52 22 -52 c17 -42 27 -52 50 -57z m1062 -56 l0 -135 -135 0 -135 0 -3 124 c-1
69 0 131 2 138 4 11 35 13 138 11 l133 -3 0 -135z m1330 110 c0 -18 -6 -26
-23 -28 -24 -4 -38 18 -28 44 3 9 15 14 28 12 17 -2 23 -10 23 -28z m-33688
-6 c3 -9 -7 -28 -28 -50 l-33 -34 82 0 c75 0 82 -2 82 -20 0 -18 -7 -20 -87
-20 l-87 0 39 -40 c31 -31 36 -43 27 -52 -10 -10 -26 1 -74 50 l-63 62 60 60
c63 64 72 69 82 44z m1491 0 c20 -14 22 -14 22 0 0 9 9 16 20 16 17 0 20 -7
20 -50 l0 -50 -55 0 c-41 0 -55 4 -55 14 0 8 12 16 28 18 l27 4 -37 19 c-36
18 -40 18 -72 2 -71 -34 -67 -132 8 -157 43 -14 81 2 98 42 15 33 48 38 48 7
0 -12 -16 -37 -36 -55 -31 -29 -42 -34 -86 -34 -45 0 -54 4 -84 36 -29 31 -34
42 -34 86 0 45 4 54 36 84 30 29 43 34 82 34 27 0 57 -7 70 -16z m31496 -6
c22 -32 20 -64 -6 -82 -32 -22 -64 -20 -82 6 -22 32 -20 64 6 82 32 22 64 20
82 -6z m-30587 -20 c28 -27 33 -39 33 -77 0 -37 -6 -51 -32 -78 -27 -28 -39
-33 -77 -33 -37 0 -51 6 -78 32 -28 27 -33 39 -33 77 0 37 6 51 32 78 27 28
39 33 77 33 37 0 51 -6 78 -32z m1873 0 c0 -31 2 -33 37 -33 33 0 40 -4 52
-32 18 -40 51 -46 51 -9 0 13 -6 27 -12 29 -9 4 -10 8 -2 14 6 4 13 16 17 26
9 23 27 22 27 -2 0 -10 10 -22 23 -26 l22 -8 -22 -4 c-16 -3 -23 -11 -23 -29
0 -21 4 -24 40 -24 36 0 40 3 40 25 0 16 -6 25 -15 25 -8 0 -15 5 -15 10 0 6
7 10 15 10 8 0 15 9 15 20 0 11 5 20 11 20 6 0 13 -9 16 -20 3 -11 12 -20 19
-20 8 0 14 -4 14 -10 0 -5 -7 -10 -15 -10 -9 0 -15 -9 -15 -25 0 -21 5 -25 30
-25 27 0 30 3 30 34 0 33 0 33 47 34 51 1 83 -18 83 -50 0 -12 7 -18 24 -18
19 0 23 4 19 20 -3 11 0 27 7 35 16 19 74 19 90 0 18 -22 4 -31 -25 -15 -18
10 -28 11 -36 3 -17 -17 -1 -32 41 -39 37 -6 39 -8 33 -33 -9 -39 -22 -51 -59
-51 -38 0 -81 32 -50 38 9 2 23 -2 31 -8 18 -15 45 -6 45 15 0 12 -13 15 -60
15 -44 0 -60 -4 -60 -13 0 -25 -38 -50 -69 -45 -26 4 -30 1 -33 -21 -2 -13 -9
-26 -15 -29 -9 -3 -13 12 -13 52 0 56 0 56 -30 56 -34 0 -41 -23 -13 -39 24
-13 10 -25 -22 -17 -18 5 -25 13 -25 31 0 22 -4 25 -40 25 -44 0 -51 -13 -20
-32 27 -17 25 -28 -6 -28 -19 0 -28 7 -35 30 -7 19 -18 30 -30 30 -14 0 -19
-7 -19 -30 0 -20 -5 -30 -15 -30 -10 0 -15 10 -15 30 0 28 -3 30 -35 30 -32 0
-35 -2 -35 -30 0 -20 -5 -30 -15 -30 -10 0 -15 10 -15 29 0 16 -6 32 -12 35
-10 5 -10 7 0 12 8 4 12 28 12 70 0 50 3 64 15 64 10 0 15 -10 15 -32z m808
20 c-3 -7 -18 -66 -34 -130 -18 -75 -33 -118 -41 -118 -17 0 -17 7 8 103 38
154 39 157 55 157 9 0 14 -6 12 -12z m82 1 c0 -9 -22 -102 -51 -211 -6 -24
-16 -38 -25 -38 -9 0 -14 6 -12 13 3 6 18 65 34 130 18 74 33 117 41 117 7 0
13 -5 13 -11z m50 -94 c0 -87 -3 -105 -15 -105 -12 0 -15 18 -15 105 0 87 3
105 15 105 12 0 15 -18 15 -105z m550 0 c0 -87 -3 -105 -15 -105 -12 0 -15 18
-15 105 0 87 3 105 15 105 12 0 15 -18 15 -105z m70 73 c0 -31 2 -33 37 -33
30 0 40 -5 50 -25 19 -36 13 -114 -9 -118 -16 -3 -18 5 -18 56 0 63 -10 77
-42 60 -14 -7 -18 -21 -18 -63 0 -42 -3 -55 -15 -55 -12 0 -15 18 -15 105 0
87 3 105 15 105 10 0 15 -10 15 -32z m723 20 c35 -18 46 -40 47 -90 0 -60 -16
-95 -49 -106 -31 -11 -77 2 -85 25 -12 29 6 30 46 1 14 -10 21 -9 37 6 33 30
27 45 -17 39 -29 -4 -41 0 -56 16 -27 30 -24 71 8 98 31 26 39 28 69 11z m194
-12 c25 -22 28 -31 28 -85 0 -49 -4 -65 -22 -82 -23 -24 -65 -28 -87 -9 -43
35 -43 134 -1 176 30 30 47 30 82 0z m186 -6 c44 -41 25 -160 -28 -180 -31
-12 -70 1 -85 30 -13 25 0 27 34 5 28 -19 50 -12 65 21 15 33 14 39 -3 25 -8
-7 -29 -11 -48 -9 -65 6 -78 95 -18 125 29 14 57 9 83 -17z m180 -2 c20 -23
24 -117 6 -149 -13 -25 -50 -40 -78 -32 -46 12 -67 113 -36 173 23 44 73 48
108 8z m-3945 0 c14 -12 16 -38 3 -38 -5 0 -14 7 -21 15 -17 20 -54 15 -58 -7
-2 -12 8 -20 37 -28 52 -14 69 -42 46 -76 -14 -21 -23 -25 -57 -22 -25 2 -45
10 -52 20 -16 26 -2 31 32 11 25 -14 32 -15 46 -4 21 17 6 37 -34 46 -36 8
-52 27 -48 57 6 41 67 56 106 26z m-519 -45 l41 -58 0 58 c0 44 3 57 15 57 12
0 15 -16 15 -85 0 -104 -11 -109 -66 -29 l-39 57 -3 -57 c-2 -41 -7 -56 -17
-56 -12 0 -15 17 -15 85 0 105 11 109 69 28z m3661 41 c0 -9 9 -18 20 -21 11
-3 20 -9 20 -13 0 -4 -9 -10 -20 -13 -15 -4 -20 -14 -20 -41 0 -24 7 -42 20
-53 26 -23 25 -33 -3 -33 -35 0 -47 19 -47 76 0 32 -5 55 -12 58 -10 5 -10 7
0 12 6 3 12 14 12 25 0 10 7 19 15 19 8 0 15 -7 15 -16z m-3370 -9 c0 -8 7
-15 15 -15 8 0 15 -4 15 -10 0 -5 -7 -10 -15 -10 -11 0 -15 -11 -15 -40 0 -27
5 -43 15 -46 25 -10 17 -26 -12 -22 -26 3 -28 7 -31 53 -2 27 -9 53 -15 58 -9
7 -9 10 1 14 6 2 12 11 12 19 0 8 7 14 15 14 8 0 15 -7 15 -15z m3141 -44 c38
-48 4 -121 -56 -121 -77 0 -97 111 -26 146 30 15 57 7 82 -25z m-3227 13 c21
-20 20 -73 -1 -96 -36 -39 -103 -9 -103 47 0 55 67 86 104 49z m454 4 c5 -7
13 -23 16 -35 7 -22 4 -23 -38 -23 -47 0 -57 -9 -32 -29 11 -10 20 -10 36 -1
26 14 37 6 20 -15 -16 -20 -59 -19 -82 2 -22 20 -23 70 -1 95 18 21 66 24 81
6z m142 -3 c18 -21 4 -32 -21 -17 -26 16 -49 0 -49 -33 0 -33 23 -49 49 -33
25 15 39 4 21 -17 -16 -20 -59 -19 -82 2 -22 20 -23 70 -1 95 20 22 66 24 83
3z m70 -34 c0 -48 10 -63 38 -54 7 3 12 23 12 54 0 37 4 49 15 49 12 0 15 -14
15 -64 l0 -64 -42 0 c-57 -1 -68 11 -68 74 0 41 4 54 15 54 11 0 15 -12 15
-49z m190 38 c0 -5 -4 -9 -9 -9 -22 0 -41 -34 -41 -71 0 -28 -4 -39 -15 -39
-12 0 -15 14 -15 64 l0 64 40 0 c22 0 40 -3 40 -9z m108 -1 c5 -7 13 -23 16
-35 7 -22 4 -23 -38 -23 -47 0 -57 -9 -32 -29 11 -10 20 -10 36 -1 26 14 37 6
20 -15 -16 -20 -59 -19 -82 2 -22 20 -23 70 -1 95 18 21 66 24 81 6z m1544 -5
c23 -21 24 -89 1 -115 -25 -28 -77 -24 -102 8 -25 32 -26 55 -6 94 13 25 22
30 52 30 20 0 45 -7 55 -17z m162 1 c32 -31 9 -47 -28 -19 -37 28 -70 -17 -50
-69 7 -18 49 -22 59 -6 8 13 35 13 35 1 0 -37 -79 -54 -112 -24 -23 21 -24 89
-1 115 20 22 76 24 97 2z m156 -3 c5 -11 10 -44 10 -74 l0 -54 -55 -2 c-45 -1
-56 2 -65 20 -18 33 11 69 55 69 37 0 44 10 21 29 -10 9 -20 9 -40 0 -31 -14
-44 -6 -26 16 19 23 87 20 100 -4z m550 4 c18 -22 5 -30 -26 -16 -27 12 -47 6
-42 -11 2 -6 19 -16 38 -22 38 -12 51 -45 30 -72 -16 -19 -84 -18 -100 1 -18
22 -5 30 25 17 27 -12 58 -6 52 11 -2 6 -18 16 -36 22 -29 9 -50 29 -51 47 -1
33 86 52 110 23z m-1267 -2 c9 -9 -13 -34 -24 -27 -14 8 -11 34 4 34 8 0 17
-3 20 -7z m1450 0 c9 -9 -13 -34 -24 -27 -14 8 -11 34 4 34 8 0 17 -3 20 -7z
m27272 -33 c0 -18 -6 -26 -23 -28 -13 -2 -25 3 -28 12 -10 26 4 48 28 44 17
-2 23 -10 23 -28z m-660 -33 c27 -14 35 -27 35 -59 l0 -28 -120 0 -120 0 0 28
c0 34 22 57 70 70 38 11 103 6 135 -11z m-28060 -48 c0 -7 -8 -15 -17 -17 -18
-3 -25 18 -11 32 10 10 28 1 28 -15z m1450 0 c0 -7 -8 -15 -17 -17 -18 -3 -25
18 -11 32 10 10 28 1 28 -15z m27270 -29 c0 -18 -6 -26 -23 -28 -13 -2 -25 3
-28 12 -10 26 4 48 28 44 17 -2 23 -10 23 -28z m-30085 -690 l0 -160 -160 0
-160 0 0 160 0 160 160 0 160 0 0 -160z m2792 138 c37 -12 68 -25 68 -28 0 -4
-31 -16 -70 -27 l-70 -21 -70 21 c-38 11 -70 23 -70 27 0 6 112 47 134 49 5 1
40 -9 78 -21z m6398 3 c5 -11 10 -74 10 -141 0 -67 -5 -130 -10 -141 -10 -17
-23 -19 -150 -19 -127 0 -140 2 -150 19 -5 11 -10 74 -10 141 0 67 5 130 10
141 10 17 23 19 150 19 127 0 140 -2 150 -19z m-7712 -45 c34 -34 37 -41 37
-96 0 -56 -3 -62 -38 -97 -35 -35 -41 -38 -97 -38 -56 0 -62 3 -97 38 -35 35
-38 41 -38 97 0 52 4 63 30 90 40 42 61 51 118 46 40 -3 55 -10 85 -40z m5819
24 c87 -52 83 -198 -6 -245 -98 -50 -211 16 -211 123 0 85 56 142 140 142 27
0 58 -8 77 -20z m-10891 -19 c44 -27 60 -77 40 -125 -19 -45 -42 -46 -59 -4
l-13 32 -13 -32 c-19 -44 -38 -40 -61 14 -24 54 -24 54 -6 54 7 0 19 -14 26
-31 l13 -31 13 31 c16 39 38 40 54 1 7 -16 16 -27 21 -24 16 9 10 51 -12 78
-45 57 -143 21 -156 -56 -5 -32 -1 -41 25 -68 24 -24 39 -30 71 -30 30 0 41
-4 41 -15 0 -24 -71 -19 -111 8 -48 32 -67 89 -46 139 29 70 110 97 173 59z
m20179 -1 c14 -15 33 -20 94 -22 l76 -3 0 -95 0 -95 -155 0 -155 0 -3 104 c-1
58 0 111 2 118 4 9 25 13 64 13 46 0 63 -4 77 -20z m1620 0 c14 -15 33 -20 94
-22 l76 -3 0 -95 0 -95 -155 0 -155 0 -3 104 c-1 58 0 111 2 118 4 9 25 13 64
13 46 0 63 -4 77 -20z m-21125 -52 l0 -52 28 27 c38 37 64 36 29 -1 l-27 -28
31 -37 c27 -33 28 -37 11 -37 -11 0 -27 11 -36 25 -9 14 -21 25 -26 25 -6 0
-10 -11 -10 -25 0 -14 -4 -25 -10 -25 -6 0 -10 37 -10 90 0 53 4 90 10 90 6 0
10 -23 10 -52z m280 -38 c0 -73 -3 -90 -15 -90 -12 0 -15 17 -15 90 0 73 3 90
15 90 12 0 15 -17 15 -90z m1320 62 c0 -26 2 -28 35 -24 30 4 36 1 45 -23 16
-42 13 -105 -5 -105 -11 0 -15 12 -15 50 0 38 -4 52 -16 57 -24 9 -44 -23 -44
-69 0 -21 -4 -38 -10 -38 -6 0 -10 37 -10 90 0 53 4 90 10 90 6 0 10 -13 10
-28z m145 19 c7 -12 -12 -24 -25 -16 -11 7 -4 25 10 25 5 0 11 -4 15 -9z m55
-19 c0 -26 3 -28 33 -24 41 5 61 -16 61 -63 0 -49 -19 -65 -70 -63 l-44 1 0
89 c0 52 4 88 10 88 6 0 10 -13 10 -28z m290 0 c0 -26 3 -28 33 -24 41 5 61
-16 61 -63 0 -49 -19 -65 -70 -63 l-44 1 0 89 c0 52 4 88 10 88 6 0 10 -13 10
-28z m1080 -61 l0 -89 -42 0 c-52 -1 -78 20 -78 63 0 40 30 69 65 63 22 -5 25
-2 25 23 0 19 5 29 15 29 12 0 15 -17 15 -89z m1537 62 c17 -23 4 -37 -16 -19
-22 20 -57 21 -65 1 -4 -10 9 -22 42 -37 36 -18 48 -29 50 -49 4 -37 -22 -54
-80 -50 -18 1 -48 27 -48 42 0 14 20 11 37 -7 21 -21 58 -14 58 10 0 13 -11
23 -34 31 -39 13 -61 39 -54 64 10 40 83 49 110 14z m150 5 c15 -12 17 -38 4
-38 -5 0 -14 7 -21 15 -17 20 -54 15 -58 -6 -2 -12 9 -21 40 -31 37 -12 43
-19 46 -45 4 -36 -15 -54 -59 -55 -23 -1 -38 6 -52 23 -22 28 -6 40 22 15 22
-20 45 -21 60 -2 13 16 1 29 -39 41 -37 11 -50 25 -50 51 0 46 67 66 107 32z
m175 -8 c27 -27 30 -36 25 -71 -9 -67 -51 -97 -107 -78 -37 13 -50 36 -50 84
0 45 15 73 43 85 38 15 58 11 89 -20z m2018 -60 c0 -73 -3 -90 -15 -90 -12 0
-15 17 -15 90 0 73 3 90 15 90 12 0 15 -17 15 -90z m2110 0 c0 -73 -3 -90 -15
-90 -12 0 -15 17 -15 90 0 73 3 90 15 90 12 0 15 -17 15 -90z m12480 62 c0
-26 3 -28 29 -24 33 5 61 -26 61 -69 0 -37 -28 -58 -78 -57 l-42 0 0 89 c0 72
3 89 15 89 10 0 15 -10 15 -28z m-16010 -134 c0 -91 -2 -100 -17 -93 -10 4
-44 16 -75 27 l-58 20 0 98 0 99 75 -26 75 -25 0 -100z m850 127 c0 -8 7 -15
15 -15 8 0 15 -4 15 -10 0 -5 -7 -10 -15 -10 -10 0 -15 -10 -15 -34 0 -19 7
-41 15 -50 21 -21 19 -28 -7 -24 -20 3 -23 10 -26 53 -2 27 -9 53 -15 58 -9 7
-9 10 1 14 6 2 12 11 12 19 0 8 5 14 10 14 6 0 10 -7 10 -15z m770 0 c0 -8 7
-15 15 -15 8 0 15 -4 15 -10 0 -5 -7 -10 -15 -10 -11 0 -15 -11 -15 -40 0 -27
5 -43 15 -46 21 -8 19 -24 -3 -24 -29 0 -42 21 -42 66 0 24 -5 45 -12 48 -10
5 -10 7 0 12 6 3 12 12 12 20 0 8 7 14 15 14 8 0 15 -7 15 -15z m13120 0 c0
-8 7 -15 15 -15 8 0 15 -4 15 -10 0 -5 -7 -10 -15 -10 -10 0 -15 -10 -15 -34
0 -19 7 -41 15 -50 21 -21 19 -28 -7 -24 -20 3 -23 10 -26 53 -2 27 -9 53 -15
58 -9 7 -9 10 1 14 6 2 12 11 12 19 0 8 5 14 10 14 6 0 10 -7 10 -15z m-14582
-77 c2 -52 -1 -78 -10 -85 -19 -15 -105 -42 -112 -35 -12 11 -6 151 6 159 23
15 93 41 103 39 6 -2 11 -36 13 -78z m-6204 11 l9 -44 14 48 c16 56 39 62 49
12 9 -50 21 -52 29 -5 4 25 12 40 21 40 17 0 17 2 -3 -71 -19 -70 -40 -75 -58
-14 l-12 40 -13 -42 c-7 -24 -19 -43 -26 -43 -12 0 -44 85 -44 118 0 31 25 2
34 -39z m257 35 c7 -9 13 -31 13 -49 0 -18 -6 -40 -13 -49 -17 -20 -74 -21
-90 -2 -16 19 -17 66 -2 94 14 27 71 31 92 6z m119 8 c0 -4 -10 -12 -22 -17
-19 -8 -24 -19 -26 -57 -2 -34 -7 -48 -18 -48 -11 0 -14 15 -14 64 l0 64 40 0
c22 0 40 -2 40 -6z m251 -8 c17 -21 17 -78 -1 -99 -9 -11 -25 -15 -47 -13 -29
4 -33 1 -33 -19 0 -13 -4 -23 -10 -23 -6 0 -10 34 -10 83 l0 84 44 1 c29 2 48
-3 57 -14z m183 10 c12 -5 16 -20 16 -64 l0 -58 -47 2 c-43 1 -48 4 -51 25 -5
29 20 51 57 51 23 0 24 1 9 16 -13 13 -19 14 -36 3 -25 -16 -40 -5 -22 16 13
15 46 20 74 9z m146 -9 c17 -21 6 -29 -20 -15 -27 14 -50 -2 -50 -35 0 -35 25
-51 55 -35 31 16 42 8 20 -14 -38 -37 -105 -6 -105 49 0 53 69 88 100 50z
m134 -7 c27 -38 20 -48 -29 -48 -47 0 -56 -9 -30 -30 13 -11 20 -11 40 0 29
16 43 7 25 -15 -16 -20 -74 -19 -91 1 -7 9 -13 31 -13 49 0 18 6 40 13 49 20
24 67 20 85 -6z m1066 -43 c0 -37 -4 -65 -10 -65 -6 0 -10 28 -10 65 0 37 4
65 10 65 6 0 10 -28 10 -65z m284 43 c46 -66 -28 -144 -86 -91 -22 20 -23 70
-1 95 23 25 68 23 87 -4z m1256 14 c0 -4 -10 -12 -22 -17 -19 -8 -24 -19 -26
-57 -2 -34 -7 -48 -18 -48 -11 0 -14 15 -14 64 l0 64 40 0 c22 0 40 -2 40 -6z
m94 2 c12 -5 16 -20 16 -64 l0 -58 -47 2 c-43 1 -48 4 -51 25 -5 29 20 51 57
51 23 0 24 1 9 16 -13 13 -19 14 -36 3 -25 -16 -40 -5 -22 16 13 15 46 20 74
9z m80 -45 l9 -44 14 48 c16 56 39 62 49 12 9 -50 21 -52 29 -5 4 25 12 40 21
40 17 0 17 2 -3 -71 -19 -70 -40 -75 -58 -14 l-12 40 -13 -42 c-7 -24 -19 -43
-26 -43 -12 0 -44 85 -44 118 0 31 25 2 34 -39z m246 36 c17 -21 4 -32 -20
-17 -26 16 -40 15 -40 -2 0 -7 15 -17 32 -22 59 -17 44 -74 -19 -74 -21 0 -36
6 -40 15 -7 21 4 32 19 17 16 -16 48 -15 48 2 0 7 -15 17 -32 22 -35 10 -47
36 -28 59 16 20 64 19 80 0z m2330 -4 c5 -11 10 -40 10 -65 l0 -45 -46 2 c-76
3 -90 59 -20 73 20 3 36 10 36 15 0 16 -30 22 -45 9 -18 -15 -30 -7 -22 15 9
23 74 20 87 -4z m65 -32 l11 -44 13 48 c8 26 20 47 27 47 8 0 19 -20 26 -47
l12 -48 11 44 c6 25 17 47 24 49 14 5 14 0 -10 -90 -13 -51 -35 -49 -50 5
l-12 42 -14 -42 c-8 -24 -20 -43 -28 -43 -7 0 -20 26 -29 58 -19 70 -20 75 -4
70 7 -3 17 -24 23 -49z m245 36 c17 -20 5 -32 -15 -15 -15 12 -45 8 -45 -8 0
-4 15 -12 33 -17 24 -8 33 -16 35 -37 3 -22 -2 -29 -22 -34 -35 -8 -76 3 -76
21 0 17 16 20 25 5 9 -15 45 -12 45 3 0 7 -13 18 -30 24 -35 13 -47 37 -30 58
16 19 64 19 80 0z m282 -2 c10 -9 18 -24 18 -35 0 -14 -8 -18 -40 -18 -29 0
-40 -4 -40 -15 0 -22 24 -29 50 -15 26 14 37 6 20 -15 -16 -19 -74 -20 -89 -1
-16 19 -17 66 -2 94 14 27 56 29 83 5z m218 -4 c16 -30 13 -109 -5 -109 -11 0
-15 12 -15 49 0 52 -8 65 -34 55 -12 -4 -16 -20 -16 -55 0 -36 -4 -49 -14 -49
-11 0 -16 15 -18 53 -2 38 -7 52 -18 52 -11 0 -16 -14 -18 -52 -2 -38 -7 -53
-18 -53 -11 0 -14 15 -14 63 l0 64 80 0 c68 1 82 -2 90 -18z m141 5 c17 -21
17 -78 -1 -99 -9 -11 -25 -15 -47 -13 -29 4 -33 1 -33 -19 0 -13 -4 -23 -10
-23 -6 0 -10 34 -10 83 l0 84 44 1 c29 2 48 -3 57 -14z m183 10 c12 -5 16 -20
16 -64 l0 -58 -47 2 c-43 1 -48 4 -51 25 -5 29 20 51 57 51 23 0 24 1 9 16
-13 13 -19 14 -36 3 -25 -16 -40 -5 -22 16 13 15 46 20 74 9z m228 -11 c10 -9
18 -24 18 -35 0 -14 -8 -18 -40 -18 -29 0 -40 -4 -40 -15 0 -22 24 -29 50 -15
26 14 37 6 20 -15 -16 -19 -74 -20 -89 -1 -16 19 -17 66 -2 94 14 27 56 29 83
5z m135 2 c8 -23 -2 -28 -26 -13 -15 9 -23 10 -32 1 -9 -9 -3 -15 25 -27 41
-17 54 -39 36 -61 -16 -19 -74 -19 -89 -1 -17 20 3 30 28 14 16 -9 23 -10 32
-1 9 9 3 15 -25 27 -28 11 -36 21 -36 40 0 27 11 34 53 35 16 1 30 -5 34 -14z
m967 9 c9 -3 16 -12 16 -20 0 -17 -5 -17 -30 -2 -15 10 -22 10 -31 1 -10 -10
-6 -15 17 -23 40 -15 56 -38 43 -61 -12 -24 -71 -26 -89 -4 -18 22 -4 31 25
15 19 -10 28 -11 37 -2 8 8 1 15 -24 25 -44 18 -52 31 -38 57 11 20 43 26 74
14z m138 -11 c10 -9 18 -24 18 -35 0 -14 -8 -18 -40 -18 -29 0 -40 -4 -40 -15
0 -22 24 -29 50 -15 26 14 37 6 20 -15 -16 -19 -74 -20 -89 -1 -16 19 -17 66
-2 94 14 27 56 29 83 5z m118 7 c0 -5 -9 -12 -20 -15 -16 -5 -20 -15 -20 -56
0 -37 -4 -49 -15 -49 -12 0 -15 14 -15 63 l0 64 35 1 c19 1 35 -3 35 -8z m50
-27 c18 -57 26 -59 40 -9 8 28 18 46 27 46 8 0 13 -6 11 -12 -3 -7 -13 -37
-23 -66 -22 -70 -41 -66 -71 16 -19 49 -21 62 -10 62 8 0 20 -17 26 -37z m194
15 c27 -38 20 -48 -29 -48 -47 0 -56 -9 -30 -30 13 -11 20 -11 40 0 29 16 43
7 25 -15 -16 -20 -74 -19 -91 1 -7 9 -13 31 -13 49 0 18 6 40 13 49 20 24 67
20 85 -6z m116 14 c0 -4 -10 -12 -22 -17 -19 -8 -24 -19 -26 -57 -5 -71 -22
-58 -22 15 l0 64 35 1 c19 1 35 -2 35 -6z m174 -14 c27 -38 20 -48 -29 -48
-47 0 -56 -9 -30 -30 13 -11 20 -11 40 0 29 16 43 7 25 -15 -16 -20 -74 -19
-91 1 -7 9 -13 31 -13 49 0 18 6 40 13 49 20 24 67 20 85 -6z m120 16 c9 -3
16 -12 16 -20 0 -17 -5 -17 -30 -2 -15 10 -22 10 -31 1 -10 -10 -6 -15 17 -23
40 -15 56 -38 43 -61 -12 -24 -71 -26 -89 -4 -18 22 -4 31 25 15 19 -10 28
-11 37 -2 8 8 1 15 -24 25 -44 18 -52 31 -38 57 11 20 43 26 74 14z m136 -9
c17 -21 4 -32 -20 -17 -26 16 -40 15 -40 -2 0 -7 15 -17 32 -22 59 -17 44 -74
-19 -74 -21 0 -36 6 -40 15 -7 21 4 32 19 17 16 -16 48 -15 48 2 0 7 -15 17
-32 22 -35 10 -47 36 -28 59 16 20 64 19 80 0z m974 9 c9 -3 16 -12 16 -20 0
-17 -5 -17 -30 -2 -15 10 -22 10 -31 1 -10 -10 -6 -15 17 -23 40 -15 56 -38
43 -61 -12 -24 -71 -26 -89 -4 -18 22 -4 31 25 15 19 -10 28 -11 37 -2 8 8 1
15 -24 25 -44 18 -52 31 -38 57 11 20 43 26 74 14z m71 -34 c8 -47 21 -44 31
5 9 49 31 44 47 -12 l14 -47 11 47 c11 43 32 65 32 34 0 -32 -32 -117 -44
-117 -7 0 -19 19 -26 43 l-13 42 -12 -40 c-17 -59 -38 -56 -54 7 -8 29 -16 59
-18 66 -3 6 2 12 10 12 10 0 18 -14 22 -40z m255 21 c5 -11 10 -40 10 -65 l0
-45 -46 2 c-76 3 -90 59 -20 73 20 3 36 10 36 15 0 16 -30 22 -45 9 -18 -15
-30 -7 -22 15 9 23 74 20 87 -4z m148 -60 c-3 -71 -5 -77 -30 -89 -18 -9 -34
-9 -52 -2 -40 15 -33 32 10 24 26 -5 39 -3 45 7 14 22 11 25 -25 21 -26 -3
-37 1 -50 19 -20 29 -20 48 0 77 12 18 24 22 60 20 l45 -1 -3 -76z m152 10 c0
-41 -5 -74 -14 -86 -17 -23 -71 -24 -94 -1 -16 16 -14 17 28 14 36 -2 45 0 48
15 3 16 1 17 -15 8 -31 -16 -67 8 -71 46 -5 55 11 73 68 72 l50 -2 0 -66z
m122 52 c10 -9 18 -24 18 -35 0 -14 -8 -18 -40 -18 -29 0 -40 -4 -40 -15 0
-22 24 -29 50 -15 26 14 37 6 20 -15 -16 -19 -74 -20 -89 -1 -16 19 -17 66 -2
94 14 27 56 29 83 5z m118 9 c0 -4 -10 -12 -22 -17 -19 -8 -24 -19 -26 -57 -5
-71 -22 -58 -22 15 l0 64 35 1 c19 1 35 -2 35 -6z m970 -11 c5 -11 10 -40 10
-65 l0 -45 -46 2 c-76 3 -90 59 -20 73 20 3 36 10 36 15 0 16 -30 22 -45 9
-18 -15 -30 -7 -22 15 9 23 74 20 87 -4z m136 2 c20 -21 4 -29 -26 -13 -16 9
-25 8 -36 -1 -35 -29 -1 -95 37 -71 29 19 41 15 29 -8 -7 -14 -21 -20 -44 -20
-41 0 -60 21 -60 65 0 18 6 40 13 49 18 21 65 20 87 -1z m134 2 c17 -21 4 -32
-20 -17 -23 14 -50 6 -51 -17 -4 -52 12 -69 46 -51 29 16 43 7 25 -15 -16 -20
-59 -19 -82 2 -22 20 -23 70 -1 95 20 22 66 24 83 3z m128 3 c5 -7 13 -23 16
-35 7 -22 4 -23 -38 -23 -33 0 -46 -4 -46 -14 0 -19 39 -31 53 -17 15 15 27
14 27 -3 0 -32 -72 -35 -94 -4 -32 46 -7 108 43 108 16 0 33 -6 39 -12z m132
-3 c16 -19 5 -34 -12 -17 -16 16 -48 15 -48 -2 0 -7 15 -17 32 -22 35 -10 47
-36 28 -59 -16 -20 -64 -19 -80 0 -16 19 -5 34 12 17 14 -14 45 -16 53 -2 3 5
-10 16 -30 24 -40 17 -53 39 -35 61 16 19 64 19 80 0z m7148 -52 c2 -39 -1
-63 -8 -63 -5 0 -10 19 -10 43 0 50 -12 72 -34 64 -12 -5 -16 -20 -16 -57 0
-38 -4 -50 -15 -50 -11 0 -15 12 -15 49 0 28 -5 53 -10 56 -21 13 -40 -17 -40
-61 0 -24 -4 -44 -10 -44 -6 0 -10 28 -10 64 l0 63 83 -1 82 -1 3 -62z m130
55 c5 -7 13 -23 16 -35 7 -22 4 -23 -38 -23 -33 0 -46 -4 -46 -14 0 -19 39
-31 53 -17 15 15 27 14 27 -3 0 -32 -72 -35 -94 -4 -32 46 -7 108 43 108 16 0
33 -6 39 -12z m134 -5 c10 -9 18 -24 18 -35 0 -14 -8 -18 -40 -18 -29 0 -40
-4 -40 -15 0 -22 24 -29 50 -15 26 14 37 6 20 -15 -16 -19 -74 -20 -89 -1 -16
19 -17 66 -2 94 14 27 56 29 83 5z m212 11 c9 -3 16 -12 16 -20 0 -17 -5 -17
-30 -2 -15 10 -22 10 -31 1 -10 -10 -6 -15 17 -23 40 -15 56 -38 43 -61 -12
-24 -71 -26 -89 -4 -18 22 -4 31 25 15 19 -10 28 -11 37 -2 8 8 1 15 -24 25
-44 18 -52 31 -38 57 11 20 43 26 74 14z m1066 -13 c5 -11 10 -40 10 -65 l0
-45 -46 2 c-76 3 -90 59 -20 73 20 3 36 10 36 15 0 16 -30 22 -45 9 -18 -15
-30 -7 -22 15 9 23 74 20 87 -4z m280 4 c17 -21 6 -29 -20 -15 -27 14 -50 -2
-50 -35 0 -35 25 -51 55 -35 31 16 42 8 20 -14 -38 -37 -105 -6 -105 49 0 53
69 88 100 50z m-8923 -67 c-2 -13 -4 -5 -4 17 -1 22 1 32 4 23 2 -10 2 -28 0
-40z m681 -106 c3 -17 -2 -22 -17 -22 -14 0 -21 6 -21 18 0 38 33 41 38 4z
m559 17 c14 -14 6 -39 -12 -39 -18 0 -28 17 -21 35 6 18 18 19 33 4z m-688
-10 c36 -13 59 -45 43 -61 -7 -7 -19 -4 -38 11 -31 25 -43 26 -69 7 -25 -18
-7 -41 38 -50 52 -10 77 -33 77 -70 0 -81 -120 -101 -168 -29 -13 20 -13 23 2
29 11 4 26 -2 40 -15 26 -25 58 -27 76 -6 19 22 6 42 -33 49 -92 17 -118 99
-43 132 38 16 36 16 75 3z m129 -142 c3 -82 2 -87 -18 -87 -18 0 -20 6 -20 83
0 46 3 87 7 91 19 19 28 -8 31 -87z m142 83 c9 -5 19 -5 27 1 25 21 33 -3 33
-96 0 -84 -2 -96 -22 -115 -30 -28 -91 -27 -120 3 l-23 22 22 3 c12 2 31 -2
42 -8 28 -14 61 3 61 32 0 17 -3 19 -12 10 -7 -7 -27 -12 -45 -12 -40 0 -65
33 -65 87 0 58 59 101 102 73z m140 1 c0 -5 16 -4 35 2 32 9 38 8 57 -11 17
-17 22 -34 22 -89 1 -63 -1 -68 -21 -71 -21 -3 -22 1 -25 65 -3 62 -5 68 -25
71 -28 4 -43 -29 -43 -94 0 -37 -3 -44 -20 -44 -18 0 -20 7 -20 83 0 46 3 87
7 90 9 10 33 8 33 -2z m280 -81 c0 -83 -1 -90 -20 -90 -18 0 -20 7 -20 83 0
85 3 97 27 97 10 0 13 -22 13 -90z m85 80 c4 -7 13 -6 27 1 29 16 67 3 78 -27
6 -14 10 -52 10 -85 0 -52 -2 -59 -20 -59 -17 0 -20 7 -20 53 0 60 -17 91 -46
85 -16 -3 -19 -13 -22 -71 -3 -59 -5 -67 -22 -67 -18 0 -20 7 -20 90 0 72 3
90 14 90 8 0 18 -5 21 -10z m-875 -578 c0 -26 2 -28 35 -24 30 4 36 1 45 -23
16 -42 13 -105 -5 -105 -11 0 -15 12 -15 50 0 38 -4 52 -16 57 -24 9 -44 -23
-44 -69 0 -21 -4 -38 -10 -38 -6 0 -10 37 -10 90 0 53 4 90 10 90 6 0 10 -13
10 -28z m672 -74 c-13 -57 -29 -107 -33 -112 -18 -20 -19 3 -4 70 28 123 36
144 49 144 11 0 8 -22 -12 -102z m95 90 c-2 -7 -15 -57 -28 -110 -15 -65 -28
-98 -37 -98 -8 0 -11 7 -8 18 3 9 15 59 26 110 16 66 26 92 37 92 8 0 13 -6
10 -12z m43 -78 c0 -73 -3 -90 -15 -90 -12 0 -15 17 -15 90 0 73 3 90 15 90
12 0 15 -17 15 -90z m470 0 c0 -73 -3 -90 -15 -90 -12 0 -15 17 -15 90 0 73 3
90 15 90 12 0 15 -17 15 -90z m60 61 c0 -25 3 -28 25 -23 40 7 55 -13 55 -74
0 -41 -4 -54 -15 -54 -11 0 -15 12 -15 49 0 52 -8 65 -34 55 -12 -4 -16 -20
-16 -55 0 -37 -4 -49 -15 -49 -12 0 -15 17 -15 90 0 73 3 90 15 90 10 0 15
-10 15 -29z m634 8 c22 -17 26 -28 26 -69 0 -58 -24 -92 -64 -92 -29 0 -65 26
-53 38 4 4 18 1 32 -6 20 -11 27 -11 40 0 26 21 18 36 -18 32 -58 -7 -83 62
-37 100 29 23 41 23 74 -3z m156 -1 c15 -16 20 -35 20 -74 0 -45 -4 -56 -26
-73 -34 -27 -40 -26 -69 4 -33 32 -35 100 -4 139 25 32 51 33 79 4z m134 12
c46 -17 56 -119 15 -156 -24 -22 -69 -21 -86 2 -16 21 1 34 20 15 18 -18 43
-13 54 12 10 21 9 22 -27 19 -31 -3 -40 0 -50 18 -18 33 -8 73 20 87 30 15 24
15 54 3z m163 -5 c25 -17 37 -76 25 -120 -10 -35 -46 -57 -76 -46 -45 17 -55
128 -14 164 25 21 37 21 65 2z m-2277 -20 c0 -8 7 -15 15 -15 8 0 15 -4 15
-10 0 -5 -7 -10 -15 -10 -11 0 -15 -11 -15 -40 0 -27 5 -43 15 -46 21 -8 19
-24 -3 -24 -29 0 -42 21 -42 66 0 24 -5 45 -12 48 -10 5 -10 7 0 12 6 3 12 12
12 20 0 8 7 14 15 14 8 0 15 -7 15 -15z m90 0 c0 -8 7 -15 15 -15 8 0 15 -4
15 -10 0 -5 -7 -10 -15 -10 -11 0 -15 -11 -15 -40 0 -27 5 -43 15 -46 23 -9
18 -24 -9 -24 -28 0 -36 16 -36 70 0 21 -6 41 -12 44 -10 5 -10 7 0 12 6 3 12
12 12 20 0 8 7 14 15 14 8 0 15 -7 15 -15z m1520 1 c0 -8 6 -17 13 -20 10 -5
10 -7 0 -12 -15 -7 -18 -94 -3 -94 6 0 10 -5 10 -11 0 -6 -10 -9 -22 -7 -20 3
-23 10 -26 53 -2 27 -9 53 -15 58 -9 7 -9 10 1 14 6 2 12 11 12 19 0 8 7 14
15 14 8 0 15 -6 15 -14z m-1368 -33 c21 -19 23 -71 3 -97 -10 -13 -23 -17 -44
-14 -27 4 -31 2 -31 -19 0 -14 -6 -23 -15 -23 -12 0 -15 16 -15 84 l0 84 42 0
c26 1 50 -6 60 -15z m135 2 c8 -23 -2 -28 -26 -13 -15 9 -23 10 -32 1 -9 -9
-3 -15 25 -27 41 -17 54 -39 36 -61 -16 -19 -74 -19 -89 -1 -17 20 3 30 28 14
16 -9 23 -10 32 -1 9 9 3 15 -25 27 -28 11 -36 21 -36 40 0 27 11 34 53 35 16
1 30 -5 34 -14z m414 -1 c7 -9 13 -31 13 -49 0 -18 -6 -40 -13 -49 -17 -20
-74 -21 -90 -2 -16 19 -17 66 -2 94 14 27 71 31 92 6z m139 1 c17 -21 4 -32
-20 -17 -23 14 -50 6 -51 -17 -4 -52 12 -69 46 -51 29 16 43 7 25 -15 -16 -20
-59 -19 -82 2 -22 20 -23 70 -1 95 20 22 66 24 83 3z m128 3 c7 -7 12 -35 12
-64 l0 -51 -44 -1 c-49 -1 -71 16 -61 47 4 13 18 23 41 27 19 3 34 10 34 15 0
15 -30 23 -43 10 -15 -15 -27 -14 -27 3 0 26 66 36 88 14z m346 -10 c46 -66
-28 -144 -86 -91 -22 20 -23 70 -1 95 23 25 68 23 87 -4z m126 7 c17 -20 5
-32 -15 -15 -15 12 -45 8 -45 -8 0 -4 15 -12 33 -17 24 -8 33 -16 35 -37 3
-22 -2 -29 -22 -34 -35 -8 -76 3 -76 21 0 17 16 20 25 5 9 -15 45 -12 45 3 0
7 -13 18 -30 24 -35 13 -47 37 -30 58 16 19 64 19 80 0z m-1080 -10 c0 -8 -7
-15 -15 -15 -8 0 -15 7 -15 15 0 8 7 15 15 15 8 0 15 -7 15 -15z m1240 0 c0
-8 -7 -15 -15 -15 -8 0 -15 7 -15 15 0 8 7 15 15 15 8 0 15 -7 15 -15z m-1240
-90 c0 -8 -7 -15 -15 -15 -8 0 -15 7 -15 15 0 8 7 15 15 15 8 0 15 -7 15 -15z
m1240 0 c0 -8 -7 -15 -15 -15 -8 0 -15 7 -15 15 0 8 7 15 15 15 8 0 15 -7 15
-15z m3618 -449 c46 -16 97 -69 110 -114 16 -53 16 -451 0 -504 -13 -45 -64
-98 -110 -114 -48 -18 -3948 -18 -3996 0 -46 16 -97 69 -110 114 -8 25 -12
119 -12 252 0 133 4 227 12 252 13 45 64 98 110 114 48 18 3948 18 3996 0z
m-5446 -342 c2 -51 7 -70 21 -78 34 -21 52 4 55 78 2 50 6 66 17 66 23 0 21
-121 -3 -149 -22 -28 -75 -31 -102 -6 -16 15 -20 31 -20 87 0 53 3 68 15 68
11 0 15 -16 17 -66z m228 11 c17 -21 4 -32 -20 -17 -26 16 -40 15 -40 -2 0 -7
15 -17 32 -22 59 -17 44 -74 -19 -74 -21 0 -36 6 -40 15 -7 21 4 32 19 17 16
-16 48 -15 48 2 0 7 -15 17 -32 22 -35 10 -47 36 -28 59 16 20 64 19 80 0z
m128 3 c5 -7 13 -23 16 -35 7 -22 4 -23 -38 -23 -33 0 -46 -4 -46 -14 0 -19
39 -31 53 -17 15 15 27 14 27 -3 0 -32 -72 -35 -94 -4 -32 46 -7 108 43 108
16 0 33 -6 39 -12z m122 4 c0 -4 -10 -12 -22 -17 -19 -8 -24 -19 -26 -57 -2
-34 -7 -48 -18 -48 -11 0 -14 15 -14 64 l0 64 40 0 c22 0 40 -2 40 -6z m120
-18 c16 -41 13 -104 -5 -104 -11 0 -15 12 -15 50 0 36 -4 52 -15 56 -26 10
-45 -16 -45 -62 0 -24 -4 -44 -10 -44 -6 0 -10 28 -10 63 l0 64 45 1 c40 2 47
-1 55 -24z m130 7 c5 -11 10 -40 10 -65 l0 -45 -46 2 c-76 3 -90 59 -20 73 20
3 36 10 36 15 0 16 -30 22 -45 9 -18 -15 -30 -7 -22 15 9 23 74 20 87 -4z
m208 -48 c2 -37 -1 -63 -7 -63 -5 0 -11 24 -13 53 -3 44 -6 52 -23 52 -17 0
-20 -8 -23 -52 -2 -38 -7 -53 -18 -53 -10 0 -14 13 -14 49 0 28 -5 53 -10 56
-21 13 -40 -17 -40 -61 0 -24 -4 -44 -10 -44 -6 0 -10 28 -10 64 l0 63 83 -1
82 -1 3 -62z m130 55 c5 -7 13 -23 16 -35 7 -22 4 -23 -38 -23 -33 0 -46 -4
-46 -14 0 -19 39 -31 53 -17 15 15 27 14 27 -3 0 -32 -72 -35 -94 -4 -32 46
-7 108 43 108 16 0 33 -6 39 -12z m-990 -920 c17 -15 15 -58 -5 -80 -9 -10
-29 -18 -45 -18 -24 0 -28 -4 -28 -30 0 -20 -5 -30 -15 -30 -12 0 -15 16 -15
83 0 46 2 86 4 88 8 8 90 -3 104 -13z m942 -67 l0 -89 -42 0 c-52 -1 -78 20
-78 63 0 40 30 69 65 63 22 -5 25 -2 25 23 0 19 5 29 15 29 12 0 15 -17 15
-89z m-822 27 c7 -7 12 -35 12 -64 l0 -51 -44 -1 c-49 -1 -71 16 -61 47 4 13
18 23 41 27 19 3 34 10 34 15 0 15 -30 23 -43 10 -15 -15 -27 -14 -27 3 0 26
66 36 88 14z m132 -3 c17 -21 4 -32 -20 -17 -26 16 -40 15 -40 -2 0 -7 15 -17
32 -22 59 -17 44 -74 -19 -74 -21 0 -36 6 -40 15 -7 21 4 32 19 17 16 -16 48
-15 48 2 0 7 -15 17 -32 22 -35 10 -47 36 -28 59 16 20 64 19 80 0z m114 9 c9
-3 16 -12 16 -20 0 -17 -5 -17 -30 -2 -15 10 -22 10 -31 1 -10 -10 -6 -15 17
-23 40 -15 56 -38 43 -61 -12 -24 -71 -26 -89 -4 -18 22 -4 31 25 15 19 -10
28 -11 37 -2 8 8 1 15 -24 25 -44 18 -52 31 -38 57 11 20 43 26 74 14z m71
-34 c8 -47 21 -44 31 5 9 49 31 44 47 -12 l14 -47 11 47 c7 26 17 47 22 47 14
0 13 -18 -5 -78 -18 -59 -40 -68 -50 -19 -12 52 -19 55 -31 12 -16 -59 -37
-56 -53 7 -8 29 -16 59 -18 66 -3 6 2 12 10 12 10 0 18 -14 22 -40z m259 24
c18 -18 21 -66 6 -95 -13 -24 -72 -26 -91 -3 -7 9 -13 31 -13 49 0 18 6 40 13
49 17 20 65 21 85 0z m116 6 c0 -5 -9 -11 -19 -15 -15 -5 -21 -17 -23 -52 -2
-26 -9 -48 -15 -51 -10 -3 -13 14 -13 61 l0 64 35 1 c19 1 35 -3 35 -8z m4451
-917 c79 -39 140 -102 177 -181 22 -48 27 -71 27 -142 0 -71 -5 -94 -27 -142
-37 -79 -98 -142 -177 -181 l-66 -32 -485 0 -485 0 -57 27 c-79 37 -142 98
-181 177 -29 59 -32 75 -32 151 0 70 5 95 27 141 47 102 134 177 237 206 34 9
163 12 511 10 l465 -2 66 -32z m-1831 -323 c0 -82 -3 -100 -15 -100 -12 0 -15
18 -15 100 0 82 3 100 15 100 12 0 15 -18 15 -100z m-683 64 c19 -19 22 -29
14 -37 -8 -8 -17 -5 -34 11 -28 26 -44 28 -69 5 -20 -18 -24 -64 -8 -94 13
-24 65 -26 78 -3 5 9 17 14 26 13 17 -4 16 -6 -3 -30 -41 -53 -120 -38 -141
26 -33 100 66 180 137 109z m153 -43 c5 -11 10 -42 10 -69 l0 -50 -51 2 c-38
1 -55 6 -63 19 -15 24 3 49 42 59 18 5 32 12 32 17 0 13 -28 22 -35 11 -4 -6
-15 -10 -26 -10 -17 0 -18 3 -9 20 15 28 85 28 100 1z m158 -53 c2 -56 0 -68
-13 -68 -12 0 -15 12 -15 55 0 52 -1 55 -24 55 -23 0 -25 -4 -28 -52 -2 -41
-7 -54 -20 -56 -16 -3 -18 5 -18 67 l0 70 58 -2 57 -2 3 -67z m156 50 c15 -24
0 -34 -28 -18 -35 18 -56 7 -56 -30 0 -37 21 -48 56 -30 27 15 37 10 28 -14
-8 -20 -45 -30 -78 -22 -40 10 -54 84 -23 124 15 19 87 11 101 -10z m140 0
c29 -42 21 -58 -29 -58 -35 0 -45 -4 -45 -16 0 -14 7 -15 45 -10 25 4 45 5 45
2 0 -16 -36 -36 -64 -36 -42 0 -61 22 -61 70 0 21 7 45 14 54 20 24 77 21 95
-6z"/>
<path d="M513 21294 c-26 -13 -63 -64 -63 -88 0 -3 20 -6 44 -6 48 0 76 -19
76 -51 0 -13 -7 -19 -21 -19 -14 0 -19 -5 -17 -17 8 -43 96 -13 122 42 21 44
21 45 -16 38 -22 -4 -34 -2 -42 9 -7 9 -23 18 -36 20 -30 4 -29 35 1 56 44 31
7 43 -48 16z"/>
<path d="M2027 21264 c-23 -23 7 -69 37 -58 25 10 17 58 -9 62 -12 2 -24 0
-28 -4z"/>
<path d="M2180 21251 c-21 -40 -5 -111 25 -111 8 0 19 9 25 19 21 40 5 111
-25 111 -8 0 -19 -9 -25 -19z"/>
<path d="M2330 21256 c-27 -33 18 -72 48 -42 13 13 14 20 6 34 -15 23 -38 26
-54 8z"/>
<path d="M2484 21246 c-9 -38 0 -88 19 -100 14 -8 20 -8 27 4 11 17 13 80 4
104 -9 25 -43 19 -50 -8z"/>
<path d="M992 21218 c-28 -28 -3 -85 32 -72 22 8 22 70 0 78 -20 8 -18 8 -32
-6z"/>
<path d="M1278 21173 c-21 -5 -24 -33 -5 -33 14 0 37 20 37 32 0 8 -4 9 -32 1z"/>
<path d="M1602 21218 c-28 -28 -3 -85 32 -72 22 8 22 70 0 78 -20 8 -18 8 -32
-6z"/>
<path d="M31666 20397 c-5 -20 -13 -27 -31 -27 -32 0 -40 -16 -15 -30 17 -9
20 -17 15 -42 -7 -28 -6 -29 15 -18 17 9 29 9 47 1 34 -15 35 -15 28 18 -5 23
-2 32 14 43 24 17 18 28 -16 28 -12 0 -23 4 -23 8 0 5 -6 16 -14 27 -12 17
-13 17 -20 -8z"/>
<path d="M32570 20340 l0 -110 70 0 70 0 0 110 0 110 -70 0 -70 0 0 -110z"/>
<path d="M2730 20383 c0 -3 7 -15 17 -25 15 -17 15 -19 -2 -38 -24 -26 -11
-39 15 -15 19 17 21 17 40 0 26 -24 39 -11 15 15 -17 19 -17 21 0 40 24 26 11
39 -15 15 -19 -17 -21 -17 -38 -2 -19 18 -32 22 -32 10z"/>
<path d="M4742 20358 c-23 -23 -13 -38 23 -38 22 0 35 5 35 13 0 16 -20 37
-35 37 -6 0 -16 -5 -23 -12z"/>
<path d="M5112 20358 c-24 -24 -13 -38 29 -38 41 0 41 0 27 23 -18 26 -39 32
-56 15z"/>
<path d="M5100 20290 c0 -18 40 -32 56 -19 23 19 16 29 -21 29 -19 0 -35 -4
-35 -10z"/>
<path d="M6962 20408 c-36 -36 6 -91 46 -62 27 19 28 36 4 57 -22 20 -34 21
-50 5z"/>
<path d="M7140 20405 c-18 -22 -16 -114 4 -133 33 -34 73 28 60 93 -11 53 -39
70 -64 40z"/>
<path d="M7316 20404 c-31 -30 -8 -69 36 -62 30 4 38 46 12 65 -23 17 -29 16
-48 -3z"/>
<path d="M7496 20398 c-9 -12 -16 -38 -16 -58 0 -35 23 -80 40 -80 23 0 40 34
40 80 0 31 -6 54 -16 64 -21 21 -30 20 -48 -6z"/>
<path d="M6466 20357 c-12 -9 -17 -24 -14 -47 3 -31 6 -35 33 -35 27 0 30 3
33 37 4 44 -23 66 -52 45z"/>
<path d="M3252 20358 c-30 -30 1 -94 33 -68 25 20 13 80 -15 80 -3 0 -11 -5
-18 -12z"/>
<path d="M3710 20355 c-11 -13 -8 -15 20 -15 28 0 31 2 20 15 -7 8 -16 15 -20
15 -4 0 -13 -7 -20 -15z"/>
<path d="M4220 20355 c-11 -13 -8 -15 20 -15 28 0 31 2 20 15 -7 8 -16 15 -20
15 -4 0 -13 -7 -20 -15z"/>
<path d="M5750 20350 c-23 -23 -25 -39 -7 -64 8 -11 23 -17 38 -14 20 2 25 9
27 40 2 29 -1 39 -17 48 -17 8 -24 7 -41 -10z"/>
<path d="M6083 20303 c-13 -2 -23 -10 -23 -18 0 -20 28 -26 45 -9 16 16 20 35
8 33 -5 -1 -18 -4 -30 -6z"/>
<path d="M3926 19555 c4 -8 8 -15 10 -15 2 0 4 7 4 15 0 8 -4 15 -10 15 -5 0
-7 -7 -4 -15z"/>
<path d="M13112 19620 c-5 -22 -6 -38 -2 -35 10 6 24 64 17 71 -2 3 -9 -13
-15 -36z"/>
<path d="M5415 19643 c-29 -7 -72 -51 -78 -79 -4 -22 -1 -24 39 -24 46 0 74
-19 74 -51 0 -12 -7 -19 -20 -19 -23 0 -27 -25 -6 -33 37 -15 110 33 119 78 4
22 1 23 -26 18 -21 -4 -33 -1 -41 9 -7 9 -23 18 -36 20 -33 4 -36 23 -6 49 14
12 23 26 20 31 -5 8 -7 9 -39 1z"/>
<path d="M11207 19613 c-4 -3 -7 -19 -7 -34 0 -15 -6 -29 -12 -32 -10 -3 -10
-7 -1 -18 6 -8 13 -25 15 -39 2 -15 11 -26 23 -29 17 -3 18 -1 6 13 -17 20
-17 111 -1 131 10 12 10 15 -2 15 -8 0 -18 -3 -21 -7z"/>
<path d="M11329 19606 c7 -9 13 -38 13 -66 0 -28 -6 -57 -13 -66 -12 -14 -11
-16 6 -13 12 3 21 14 23 29 2 14 9 31 15 38 8 10 8 15 0 20 -6 4 -13 21 -15
37 -2 20 -9 31 -23 34 -17 3 -18 1 -6 -13z"/>
<path d="M11230 19540 c0 -5 5 -10 10 -10 6 0 10 5 10 10 0 6 -4 10 -10 10 -5
0 -10 -4 -10 -10z"/>
<path d="M11270 19540 c0 -5 5 -10 10 -10 6 0 10 5 10 10 0 6 -4 10 -10 10 -5
0 -10 -4 -10 -10z"/>
<path d="M11310 19540 c0 -5 5 -10 10 -10 6 0 10 5 10 10 0 6 -4 10 -10 10 -5
0 -10 -4 -10 -10z"/>
<path d="M20530 19540 l0 -90 130 0 130 0 0 70 0 70 -73 0 c-61 0 -77 3 -92
20 -12 13 -31 20 -57 20 l-38 0 0 -90z"/>
<path d="M22150 19540 l0 -90 130 0 130 0 0 70 0 70 -73 0 c-61 0 -77 3 -92
20 -12 13 -31 20 -57 20 l-38 0 0 -90z"/>
<path d="M2961 19561 c-16 -11 -18 -58 -2 -74 28 -28 67 37 41 69 -14 16 -20
17 -39 5z"/>
<path d="M3251 19561 c-16 -11 -18 -58 -2 -74 28 -28 67 37 41 69 -14 16 -20
17 -39 5z"/>
<path d="M4232 19558 c-28 -28 -3 -85 32 -72 27 10 15 84 -14 84 -3 0 -11 -5
-18 -12z"/>
<path d="M6082 19598 c-17 -17 -15 -84 4 -102 8 -9 24 -16 34 -16 22 0 50 36
50 65 0 50 -57 84 -88 53z"/>
<path d="M22792 19558 c-32 -32 0 -95 34 -67 24 20 12 79 -16 79 -3 0 -11 -5
-18 -12z"/>
<path d="M6863 19540 c-13 -5 -23 -11 -23 -14 0 -7 40 6 46 15 6 10 6 10 -23
-1z"/>
<path d="M6863 19490 c-13 -5 -23 -11 -23 -14 0 -7 40 6 46 15 6 10 6 10 -23
-1z"/>
<path d="M909 19549 c-13 -25 2 -69 24 -69 33 0 50 53 25 78 -18 18 -36 15
-49 -9z"/>
<path d="M1279 19549 c-13 -25 2 -69 24 -69 19 0 37 21 37 45 0 43 -41 60 -61
24z"/>
<path d="M1493 19513 c-17 -6 -17 -33 0 -33 14 0 37 20 37 32 0 9 -18 9 -37 1z"/>
<path d="M1750 19555 c-11 -13 -8 -15 19 -15 33 0 42 14 15 24 -21 8 -20 8
-34 -9z"/>
<path d="M3101 19561 c-16 -11 -18 -58 -2 -74 28 -28 67 37 41 69 -14 16 -20
17 -39 5z"/>
<path d="M4473 19513 c-17 -6 -17 -33 0 -33 14 0 37 20 37 32 0 9 -18 9 -37 1z"/>
<path d="M7118 19513 c-18 -5 -25 -33 -9 -33 21 0 41 13 41 26 0 14 -3 15 -32
7z"/>
<path d="M7707 19564 c-14 -14 -6 -24 19 -24 16 0 24 5 22 13 -5 14 -31 21
-41 11z"/>
<path d="M8049 19549 c-13 -25 2 -69 24 -69 19 0 37 21 37 45 0 43 -41 60 -61
24z"/>
<path d="M8263 19513 c-17 -6 -17 -33 0 -33 14 0 37 20 37 32 0 9 -18 9 -37 1z"/>
<path d="M8477 19564 c-14 -14 -6 -24 19 -24 16 0 24 5 22 13 -5 14 -31 21
-41 11z"/>
<path d="M9717 19564 c-14 -14 -6 -24 19 -24 16 0 24 5 22 13 -5 14 -31 21
-41 11z"/>
<path d="M10070 19555 c-11 -13 -8 -15 19 -15 33 0 42 14 15 24 -21 8 -20 8
-34 -9z"/>
<path d="M10360 19555 c-11 -13 -8 -15 19 -15 33 0 42 14 15 24 -21 8 -20 8
-34 -9z"/>
<path d="M11928 19513 c-18 -5 -25 -33 -9 -33 21 0 41 13 41 26 0 14 -3 15
-32 7z"/>
<path d="M12050 19555 c-15 -18 -10 -45 13 -59 15 -9 21 -7 33 8 18 25 18 31
-2 50 -19 20 -28 20 -44 1z"/>
<path d="M12202 19561 c-8 -5 -12 -21 -10 -37 4 -40 44 -47 54 -10 4 16 1 32
-6 41 -14 17 -20 18 -38 6z"/>
<path d="M12347 19564 c-14 -14 -6 -24 19 -24 16 0 24 5 22 13 -5 14 -31 21
-41 11z"/>
<path d="M13438 19513 c-18 -5 -25 -33 -9 -33 21 0 41 13 41 26 0 14 -3 15
-32 7z"/>
<path d="M13830 19555 c-11 -13 -8 -15 20 -15 28 0 31 2 20 15 -7 8 -16 15
-20 15 -4 0 -13 -7 -20 -15z"/>
<path d="M21240 19555 c-11 -13 -8 -15 20 -15 28 0 31 2 20 15 -7 8 -16 15
-20 15 -4 0 -13 -7 -20 -15z"/>
<path d="M21377 19564 c-14 -14 -6 -24 19 -24 16 0 24 5 22 13 -5 14 -31 21
-41 11z"/>
<path d="M22658 19513 c-18 -5 -25 -33 -9 -33 21 0 41 13 41 26 0 14 -3 15
-32 7z"/>
<path d="M14842 19308 c-32 -32 1 -98 42 -82 21 8 32 52 19 73 -13 20 -45 25
-61 9z"/>
<path d="M16431 18756 c-9 -11 -10 -20 -1 -36 13 -24 38 -23 53 1 23 37 -25
68 -52 35z"/>
<path d="M16584 18746 c-9 -38 0 -88 18 -100 20 -12 26 -8 37 30 11 42 -5 94
-29 94 -12 0 -22 -9 -26 -24z"/>
<path d="M16737 18764 c-11 -11 -8 -52 3 -59 6 -3 19 -3 31 0 28 9 23 59 -6
63 -12 2 -24 0 -28 -4z"/>
<path d="M16890 18751 c-21 -40 -5 -111 25 -111 8 0 19 9 25 19 21 40 5 111
-25 111 -8 0 -19 -9 -25 -19z"/>
<path d="M14852 18718 c-28 -28 -2 -88 33 -74 21 8 20 72 -1 80 -20 8 -18 8
-32 -6z"/>
<path d="M15389 18709 c-13 -25 2 -69 24 -69 19 0 37 21 37 45 0 43 -41 60
-61 24z"/>
<path d="M15677 18673 c-10 -3 -16 -10 -14 -16 6 -19 41 -14 45 6 4 17 1 18
-31 10z"/>
<path d="M16011 18721 c-16 -11 -18 -58 -2 -74 28 -28 67 37 41 69 -14 16 -20
17 -39 5z"/>
<path d="M15972 18140 c-18 -11 -41 -34 -52 -52 -18 -30 -20 -51 -20 -268 0
-217 2 -238 20 -268 11 -18 34 -41 52 -52 33 -20 55 -20 2008 -20 1953 0 1975
0 2008 20 18 11 41 34 52 52 18 30 20 51 20 268 0 217 -2 238 -20 268 -11 18
-34 41 -52 52 -33 20 -55 20 -2008 20 -1953 0 -1975 0 -2008 -20z m128 -310
c0 -93 -4 -150 -10 -150 -6 0 -10 57 -10 150 0 93 4 150 10 150 6 0 10 -57 10
-150z"/>
<path d="M14830 17835 c-11 -13 -8 -15 20 -15 28 0 31 2 20 15 -7 8 -16 15
-20 15 -4 0 -13 -7 -20 -15z"/>
<path d="M15208 17793 c-18 -5 -25 -33 -9 -33 21 0 41 13 41 26 0 14 -3 15
-32 7z"/>
<path d="M15540 17835 c-11 -13 -8 -15 20 -15 28 0 31 2 20 15 -7 8 -16 15
-20 15 -4 0 -13 -7 -20 -15z"/>
<path d="M14530 16896 c0 -28 4 -36 18 -36 28 0 44 16 40 41 -2 18 -10 25 -30
27 -26 3 -28 1 -28 -32z"/>
<path d="M15472 16878 c-28 -28 -3 -85 32 -72 27 10 15 84 -14 84 -3 0 -11 -5
-18 -12z"/>
<path d="M14677 16833 c-10 -3 -16 -10 -14 -16 6 -19 41 -14 45 6 4 17 1 18
-31 10z"/>
<path d="M15242 16878 c-25 -25 -8 -78 25 -78 22 0 36 40 24 66 -12 26 -30 31
-49 12z"/>
<path d="M19072 15744 c4 -21 22 -23 26 -1 2 10 -3 17 -13 17 -10 0 -15 -6
-13 -16z"/>
<path d="M18917 15732 c-36 -39 -12 -80 56 -96 31 -7 39 -45 10 -47 -29 -2
-48 2 -54 13 -4 5 -14 8 -23 6 -15 -3 -15 -5 -1 -25 24 -34 98 -33 121 2 15
23 15 27 0 50 -9 14 -33 29 -57 35 -29 8 -39 16 -37 28 4 22 35 27 64 11 31
-16 42 -4 19 21 -23 25 -76 26 -98 2z"/>
<path d="M19530 15656 c0 -80 3 -96 15 -96 13 0 15 15 13 92 -2 62 -7 93 -15
96 -10 3 -13 -20 -13 -92z"/>
<path d="M19070 15630 c0 -56 3 -70 15 -70 12 0 15 14 15 70 0 56 -3 70 -15
70 -12 0 -15 -14 -15 -70z"/>
<path d="M19146 15682 c-41 -46 -5 -118 54 -110 24 4 30 1 28 -11 -3 -12 -14
-16 -47 -14 -48 2 -52 -16 -7 -32 20 -7 34 -5 54 6 25 14 27 20 30 96 l3 80
-49 1 c-36 1 -54 -3 -66 -16z m84 -47 c0 -29 -28 -47 -53 -34 -40 23 -6 90 35
68 10 -5 18 -21 18 -34z"/>
<path d="M19300 15629 c0 -55 3 -69 15 -69 11 0 15 12 15 49 0 56 19 82 45 61
10 -8 15 -30 15 -61 0 -37 4 -49 15 -49 11 0 15 12 15 51 0 75 -11 89 -70 88
l-50 -2 0 -68z"/>
<path d="M19600 15629 c0 -55 3 -69 15 -69 11 0 15 12 15 49 0 56 19 82 45 61
10 -8 15 -30 15 -61 0 -37 4 -49 15 -49 11 0 15 12 15 51 0 75 -11 89 -70 88
l-50 -2 0 -68z"/>
<path d="M17437 15613 c-14 -13 -6 -23 17 -23 13 0 26 7 30 15 4 11 -1 15 -18
15 -12 0 -26 -3 -29 -7z"/>
<path d="M17903 15673 c-22 -8 -14 -23 12 -23 14 0 25 4 25 9 0 11 -21 19 -37
14z"/>
</g>
</svg>
